<?xml version="1.0" encoding="utf-8"?>
<!-- Generator: Adobe Illustrator 27.8.1, SVG Export Plug-In . SVG Version: 6.00 Build 0)  -->
<svg version="1.1" id="Layer_1" xmlns="http://www.w3.org/2000/svg" xmlns:xlink="http://www.w3.org/1999/xlink" x="0px" y="0px"
	 viewBox="0 0 49 49" style="enable-background:new 0 0 49 49;" xml:space="preserve">
<style type="text/css">
	.st0{fill:#474747;}
</style>
<path class="st0" d="M24.5,49C11,49,0,38,0,24.5C0,11,11,0,24.5,0C38,0,49,11,49,24.5C49,38,38,49,24.5,49z M24.5,1
	C11.5,1,1,11.5,1,24.5S11.5,48,24.5,48S48,37.5,48,24.5S37.5,1,24.5,1z"/>
<polygon class="st0" points="21.4,35.3 20.6,34.7 30.3,24.5 20.6,14.3 21.4,13.7 31.7,24.5 "/>
</svg>
