<svg width="17" height="17" viewBox="0 0 17 17" fill="none" xmlns="http://www.w3.org/2000/svg">
<g clip-path="url(#clip0_237_53)">
<path d="M1.49608e-05 9.01965C1.49608e-05 7.30987 -0.00104867 5.60009 1.49608e-05 3.89138C1.49608e-05 2.98602 0.281877 2.19861 1.02429 1.63435C1.48697 1.28368 2.0241 1.10091 2.60804 1.10197C3.91949 1.10197 5.23095 1.09772 6.54028 1.13278C7.06039 1.1466 7.38905 1.56634 7.41777 2.12316C7.4433 2.60878 7.11464 3.0349 6.62111 3.13797C6.4488 3.1741 6.27118 3.19642 6.09568 3.19748C5.01397 3.20279 3.93226 3.19961 2.85054 3.20067C2.28682 3.20067 2.09749 3.38769 2.09643 3.9477C2.09643 7.34919 2.09643 10.7507 2.09643 14.1522C2.09643 14.6537 2.2581 14.9045 2.83884 14.9013C6.25203 14.8854 9.66522 14.8939 13.0784 14.8939C13.6847 14.8939 13.841 14.7366 13.8421 14.1182C13.8442 13.0024 13.8389 11.8856 13.8453 10.7698C13.8474 10.3798 13.9155 10.009 14.2899 9.7773C15.0078 9.33419 15.8768 9.73161 15.9098 10.6072C15.9619 11.9855 15.9821 13.3743 15.8641 14.7462C15.746 16.1138 14.6717 16.9862 13.2784 16.9915C9.73223 17.0053 6.18609 17.0064 2.63994 16.9905C1.06258 16.9809 0.017033 15.8417 1.49608e-05 14.1745C1.49608e-05 14.1564 1.49608e-05 14.1394 1.49608e-05 14.1213C1.49608e-05 12.4211 1.49608e-05 10.7199 1.49608e-05 9.01965Z" fill="#489DC9"/>
<path d="M13.3539 2.14341C13.1763 2.13491 13.0752 2.12747 12.9731 2.12535C12.1233 2.11047 11.2724 2.12428 10.4247 2.07221C9.80987 2.03502 9.52482 1.4697 9.60247 0.956449C9.69713 0.32312 10.046 0.0138941 10.7065 0.00964353C12.4253 -0.00310806 14.1442 -0.00523333 15.863 0.00964353C16.6075 0.0160193 16.9915 0.420882 16.9936 1.15835C17 2.87556 17 4.59384 16.9936 6.31106C16.9915 6.91463 16.7416 7.21323 16.1683 7.38857C15.7268 7.52352 14.9387 7.18985 14.9249 6.52146C14.9079 5.69898 14.9142 4.87544 14.9068 4.0519C14.9068 3.94139 14.8887 3.82981 14.8738 3.66298C14.7462 3.77243 14.6568 3.84044 14.5792 3.91907C12.4987 6.00821 10.414 8.09309 8.34526 10.1929C7.87939 10.6657 7.21249 10.6859 6.85192 10.4479C6.38286 10.1387 6.23076 9.42882 6.59984 8.94532C6.8934 8.56171 7.25503 8.22805 7.59965 7.88588C9.43229 6.06134 11.2692 4.24211 13.1029 2.4197C13.1741 2.34956 13.2369 2.27093 13.3518 2.14235L13.3539 2.14341Z" fill="#489DC9"/>
</g>
<defs>
<clipPath id="clip0_237_53">
<rect width="17" height="17" fill="white"/>
</clipPath>
</defs>
</svg>
